<svg width="16" height="16" viewBox="0 0 16 16" fill="none" xmlns="http://www.w3.org/2000/svg">
<g id="icon/account" clip-path="url(#clip0_2524_22369)">
<path id="Vector" d="M8.00016 1.33301C4.32016 1.33301 1.3335 4.31967 1.3335 7.99967C1.3335 11.6797 4.32016 14.6663 8.00016 14.6663C11.6802 14.6663 14.6668 11.6797 14.6668 7.99967C14.6668 4.31967 11.6802 1.33301 8.00016 1.33301ZM8.00016 3.33301C9.10683 3.33301 10.0002 4.22634 10.0002 5.33301C10.0002 6.43967 9.10683 7.33301 8.00016 7.33301C6.8935 7.33301 6.00016 6.43967 6.00016 5.33301C6.00016 4.22634 6.8935 3.33301 8.00016 3.33301ZM8.00016 12.7997C6.3335 12.7997 4.86016 11.9463 4.00016 10.653C4.02016 9.32634 6.66683 8.59967 8.00016 8.59967C9.32683 8.59967 11.9802 9.32634 12.0002 10.653C11.1402 11.9463 9.66683 12.7997 8.00016 12.7997Z" fill="#FF4058"/>
</g>
<defs>
<clipPath id="clip0_2524_22369">
<rect width="16" height="16" fill="white"/>
</clipPath>
</defs>
</svg>
