<svg width="16" height="16" viewBox="0 0 16 16" fill="none" xmlns="http://www.w3.org/2000/svg">
<g id="icon/cart">
<g id="Group 2">
<g id="shopping_cart-24px">
<path id="Shape" fill-rule="evenodd" clip-rule="evenodd" d="M0.666504 1.33301V2.66634H1.99984L4.39984 7.72634L3.49984 9.35967C3.39317 9.54634 3.33317 9.76634 3.33317 9.99967C3.33317 10.733 3.93317 11.333 4.6665 11.333H12.6665V9.99967H4.9465C4.85317 9.99967 4.77984 9.92634 4.77984 9.83301L4.79984 9.75301L5.39984 8.66634H10.3665C10.8665 8.66634 11.3065 8.39301 11.5332 7.97967L13.9198 3.65301C13.9732 3.55967 13.9998 3.44634 13.9998 3.33301C13.9998 2.96634 13.6998 2.66634 13.3332 2.66634H3.47317L2.8465 1.33301H0.666504ZM4.6665 11.9997C3.93317 11.9997 3.33984 12.5997 3.33984 13.333C3.33984 14.0663 3.93317 14.6663 4.6665 14.6663C5.39984 14.6663 5.99984 14.0663 5.99984 13.333C5.99984 12.5997 5.39984 11.9997 4.6665 11.9997ZM10.0065 13.333C10.0065 12.5997 10.5998 11.9997 11.3332 11.9997C12.0665 11.9997 12.6665 12.5997 12.6665 13.333C12.6665 14.0663 12.0665 14.6663 11.3332 14.6663C10.5998 14.6663 10.0065 14.0663 10.0065 13.333Z" fill="#FF4058"/>
</g>
</g>
</g>
</svg>
