<svg width="80" height="44" viewBox="0 0 80 44" fill="none" xmlns="http://www.w3.org/2000/svg">
<path d="M15.2569 26.4703C15.2569 28.8781 14.5751 30.8388 13.2115 32.3274C11.8479 33.816 10.0454 34.566 7.81766 34.566C5.52865 34.566 3.69009 33.816 2.28973 32.3274C0.889367 30.8388 0.195312 28.891 0.195312 26.4703V16.971H3.71459V26.4703C3.71459 27.9102 4.09225 29.0595 4.83459 29.9188C5.58919 30.7781 6.57513 31.2138 7.81766 31.2138C8.98666 31.2138 9.93657 30.7781 10.6551 29.9188C11.3737 29.0595 11.7391 27.8981 11.7391 26.4703V16.971H15.2584V26.4703H15.2569ZM35.8479 24.1353C35.8969 24.7403 35.9207 25.2367 35.9207 25.6238C35.9207 28.1895 35.0926 30.3188 33.4364 32.0131C31.7802 33.7074 29.6858 34.5545 27.1286 34.5545C24.547 34.5545 22.3676 33.6953 20.5895 31.9653C18.8115 30.2353 17.9229 28.1053 17.9229 25.576C17.9229 23.0588 18.7993 20.9295 20.5528 19.1988C22.3063 17.456 24.4613 16.5974 27.0061 16.5974C28.9182 16.5974 30.635 17.0453 32.1449 17.9288C33.6548 18.8245 34.7142 20.1067 35.3232 21.7767L32.1694 22.8781C31.1222 20.8817 29.3932 19.8774 27.0068 19.8774C25.4602 19.8774 24.1456 20.4217 23.0739 21.5231C22.0022 22.6245 21.4667 23.9674 21.4667 25.5767C21.4667 27.1981 22.0144 28.5653 23.1229 29.6545C24.2306 30.7438 25.5827 31.3003 27.2022 31.3003C28.5175 31.3003 29.6252 30.9495 30.5629 30.2353C31.4883 29.521 32.1095 28.5531 32.4014 27.3188H26.325V24.1353H35.8479ZM53.5769 19.2103C55.3427 20.9531 56.2191 23.0824 56.2191 25.5995C56.2191 28.1045 55.3427 30.2224 53.5769 31.9524C51.8112 33.6953 49.6562 34.5538 47.1113 34.5538C44.5665 34.5538 42.3993 33.6824 40.6458 31.9524C38.88 30.2095 38.0036 28.0924 38.0036 25.5995C38.0036 23.0824 38.88 20.9531 40.6458 19.2103C42.4115 17.4674 44.5665 16.5967 47.1113 16.5967C49.6562 16.5967 51.8112 17.4553 53.5769 19.2103ZM51.0688 29.6531C52.1405 28.576 52.6883 27.221 52.6883 25.5995C52.6883 23.9781 52.1528 22.611 51.0688 21.5217C49.9849 20.4324 48.6703 19.876 47.0991 19.876C45.5286 19.876 44.2133 20.4203 43.1294 21.5217C42.0577 22.6231 41.5099 23.9781 41.5099 25.5995C41.5099 27.221 42.0454 28.5767 43.1294 29.6531C44.2011 30.7303 45.5279 31.2745 47.0991 31.2745C48.6695 31.2745 49.9971 30.7303 51.0688 29.6531ZM71.2814 34.1788H58.8252V16.971H62.3438V31.0203H71.2814V34.1788Z" fill="black"/>
<path d="M74.204 14.6484V0.0791016L79.9633 2.81339V17.3827L74.204 14.6484Z" fill="url(#paint0_linear_2486_18969)"/>
<path opacity="0.1" d="M74.204 14.6484V0.0791016L79.9633 2.81339L74.204 14.6484Z" fill="black"/>
<path opacity="0.3" d="M74.204 14.6484V0.0791016L79.9633 2.81339V17.3827L74.204 14.6484Z" fill="url(#paint1_linear_2486_18969)"/>
<path d="M60.9679 0.0791016H74.204L79.9632 2.81339H66.7157L60.9679 0.0791016Z" fill="url(#paint2_linear_2486_18969)"/>
<defs>
<linearGradient id="paint0_linear_2486_18969" x1="77.085" y1="17.3852" x2="77.085" y2="0.0810138" gradientUnits="userSpaceOnUse">
<stop stop-color="#ED4156"/>
<stop offset="1" stop-color="#E32B3A"/>
</linearGradient>
<linearGradient id="paint1_linear_2486_18969" x1="75.098" y1="16.0874" x2="83.6619" y2="12.571" gradientUnits="userSpaceOnUse">
<stop stop-opacity="0"/>
<stop offset="0.984" stop-opacity="0.984"/>
<stop offset="1"/>
</linearGradient>
<linearGradient id="paint2_linear_2486_18969" x1="70.7253" y1="-0.408932" x2="70.7147" y2="3.29541" gradientUnits="userSpaceOnUse">
<stop stop-color="#FF3B4F"/>
<stop offset="1" stop-color="#FF4961"/>
</linearGradient>
</defs>
</svg>
