<svg width="16" height="16" viewBox="0 0 16 16" fill="none" xmlns="http://www.w3.org/2000/svg">
<g id="ic:outline-format-list-bulleted">
<path id="Vector" d="M2.6665 7C2.11317 7 1.6665 7.44667 1.6665 8C1.6665 8.55333 2.11317 9 2.6665 9C3.21984 9 3.6665 8.55333 3.6665 8C3.6665 7.44667 3.21984 7 2.6665 7ZM2.6665 3C2.11317 3 1.6665 3.44667 1.6665 4C1.6665 4.55333 2.11317 5 2.6665 5C3.21984 5 3.6665 4.55333 3.6665 4C3.6665 3.44667 3.21984 3 2.6665 3ZM2.6665 11C2.11317 11 1.6665 11.4533 1.6665 12C1.6665 12.5467 2.11984 13 2.6665 13C3.21317 13 3.6665 12.5467 3.6665 12C3.6665 11.4533 3.21984 11 2.6665 11ZM4.6665 12.6667H13.9998V11.3333H4.6665V12.6667ZM4.6665 8.66667H13.9998V7.33333H4.6665V8.66667ZM4.6665 3.33333V4.66667H13.9998V3.33333H4.6665Z" fill="#FF4058"/>
</g>
</svg>
