<svg width="24" height="24" viewBox="0 0 24 24" fill="none" xmlns="http://www.w3.org/2000/svg">
<g id="Frame">
<path id="Vector" fill-rule="evenodd" clip-rule="evenodd" d="M2 8.45636L8.43625 2L12.6752 6.22092L11.2625 7.63798L10.4778 6.84983L8.65628 8.64584L7.24365 7.22778L9.03306 5.43378L8.43625 4.83411L4.82628 8.45636L7.65156 11.2602L6.23892 12.6773L2 8.45636ZM17.1964 3.13384C17.3717 2.95799 17.6077 2.85657 17.8555 2.85063C18.0836 2.85063 18.3036 2.95243 18.4835 3.13384L20.8074 5.49627C21.1691 5.76839 21.1691 6.39327 20.8074 6.7561L19.3003 8.29913L15.6582 4.67688L17.1964 3.13384V3.13384ZM14.7791 5.6535L3.00472 17.3699V20.9921H6.61569L18.2956 9.21226L14.7791 5.6535V5.6535ZM16.3173 12.7398L17.7299 11.3227L22 15.6061L15.5326 22L11.2625 17.7166L12.6752 16.2995L15.5326 19.1649L19.1436 15.6061L18.4835 14.945L16.6941 16.7087L15.2814 15.2917L17.0708 13.4947L16.3173 12.7388V12.7398Z" fill="#AFAFAF"/>
</g>
</svg>
