<svg width="600"
     height="280"
     viewBox="0 0 600 280"
     fill="none"
     xmlns="http://www.w3.org/2000/svg">
  <path d="M27 92.6282C27 89.0383 29.9101 86.1282 33.5 86.1282H256.766C260.356 86.1282 263.266 89.0383 263.266 92.6282C263.266 96.218 260.356 99.1282 256.766 99.1282H33.5C29.9102 99.1282 27 96.218 27 92.6282Z"
        fill="#00152A"
        fill-opacity="0.1" />
  <path d="M290.136 92.6282C290.136 89.0383 293.047 86.1282 296.636 86.1282H364.865C368.455 86.1282 371.365 89.0383 371.365 92.6282C371.365 96.218 368.455 99.1282 364.865 99.1282H296.636C293.047 99.1282 290.136 96.218 290.136 92.6282Z"
        fill="#00152A"
        fill-opacity="0.1" />
  <path d="M290.136 137.834C290.136 134.244 293.047 131.334 296.636 131.334H364.865C368.455 131.334 371.365 134.244 371.365 137.834C371.365 141.424 368.455 144.334 364.865 144.334H296.636C293.047 144.334 290.136 141.424 290.136 137.834Z"
        fill="#00152A"
        fill-opacity="0.1" />
  <path d="M290.136 183.427C290.136 179.837 293.047 176.927 296.636 176.927H364.865C368.455 176.927 371.365 179.837 371.365 183.427C371.365 187.016 368.455 189.927 364.865 189.927H296.636C293.047 189.927 290.136 187.016 290.136 183.427Z"
        fill="#00152A"
        fill-opacity="0.1" />
  <path d="M290.136 228.633C290.136 225.043 293.047 222.133 296.636 222.133H364.865C368.455 222.133 371.365 225.043 371.365 228.633C371.365 232.222 368.455 235.133 364.865 235.133H296.636C293.047 235.133 290.136 232.222 290.136 228.633Z"
        fill="#00152A"
        fill-opacity="0.1" />
  <path d="M386 92.6282C386 89.0383 388.91 86.1282 392.5 86.1282H460.729C464.319 86.1282 467.229 89.0383 467.229 92.6282C467.229 96.218 464.319 99.1282 460.729 99.1282H392.5C388.91 99.1282 386 96.218 386 92.6282Z"
        fill="#00152A"
        fill-opacity="0.1" />
  <path d="M386 137.834C386 134.244 388.91 131.334 392.5 131.334H460.729C464.319 131.334 467.229 134.244 467.229 137.834C467.229 141.424 464.319 144.334 460.729 144.334H392.5C388.91 144.334 386 141.424 386 137.834Z"
        fill="#00152A"
        fill-opacity="0.1" />
  <path d="M386 183.427C386 179.837 388.91 176.927 392.5 176.927H460.729C464.319 176.927 467.229 179.837 467.229 183.427C467.229 187.016 464.319 189.927 460.729 189.927H392.5C388.91 189.927 386 187.016 386 183.427Z"
        fill="#00152A"
        fill-opacity="0.1" />
  <path d="M386 228.633C386 225.043 388.91 222.133 392.5 222.133H460.729C464.319 222.133 467.229 225.043 467.229 228.633C467.229 232.222 464.319 235.133 460.729 235.133H392.5C388.91 235.133 386 232.222 386 228.633Z"
        fill="#00152A"
        fill-opacity="0.1" />
  <path d="M483.779 92.6282C483.779 89.0383 486.689 86.1282 490.279 86.1282H558.508C562.098 86.1282 565.008 89.0383 565.008 92.6282C565.008 96.218 562.098 99.1282 558.508 99.1282H490.279C486.689 99.1282 483.779 96.218 483.779 92.6282Z"
        fill="#00152A"
        fill-opacity="0.1" />
  <path d="M483.779 137.834C483.779 134.244 486.689 131.334 490.279 131.334H558.508C562.098 131.334 565.008 134.244 565.008 137.834C565.008 141.424 562.098 144.334 558.508 144.334H490.279C486.689 144.334 483.779 141.424 483.779 137.834Z"
        fill="#00152A"
        fill-opacity="0.1" />
  <path d="M483.779 183.427C483.779 179.837 486.689 176.927 490.279 176.927H558.508C562.098 176.927 565.008 179.837 565.008 183.427C565.008 187.016 562.098 189.927 558.508 189.927H490.279C486.689 189.927 483.779 187.016 483.779 183.427Z"
        fill="#00152A"
        fill-opacity="0.1" />
  <path d="M483.779 228.633C483.779 225.043 486.689 222.133 490.279 222.133H558.508C562.098 222.133 565.008 225.043 565.008 228.633C565.008 232.222 562.098 235.133 558.508 235.133H490.279C486.689 235.133 483.779 232.222 483.779 228.633Z"
        fill="#00152A"
        fill-opacity="0.1" />
  <path d="M27 66.1128C27 64.1798 28.567 62.6128 30.5 62.6128H103.5C105.433 62.6128 107 64.1798 107 66.1128C107 68.0458 105.433 69.6128 103.5 69.6128H30.5C28.567 69.6128 27 68.0458 27 66.1128Z"
        fill="#00152A"
        fill-opacity="0.1" />
  <path d="M290.136 66.1128C290.136 64.1798 291.703 62.6128 293.636 62.6128H329.642C331.575 62.6128 333.142 64.1798 333.142 66.1128C333.142 68.0458 331.575 69.6128 329.642 69.6128H293.636C291.703 69.6128 290.136 68.0458 290.136 66.1128Z"
        fill="#00152A"
        fill-opacity="0.1" />
  <path d="M387.136 66.1128C387.136 64.1798 388.703 62.6128 390.636 62.6128H426.636C428.569 62.6128 430.136 64.1798 430.136 66.1128C430.136 68.0458 428.569 69.6128 426.636 69.6128H390.636C388.703 69.6128 387.136 68.0458 387.136 66.1128Z"
        fill="#00152A"
        fill-opacity="0.1" />
  <path d="M484.136 66.1128C484.136 64.1798 485.703 62.6128 487.636 62.6128H523.636C525.569 62.6128 527.136 64.1798 527.136 66.1128C527.136 68.0458 525.569 69.6128 523.636 69.6128H487.636C485.703 69.6128 484.136 68.0458 484.136 66.1128Z"
        fill="#00152A"
        fill-opacity="0.1" />
  <path d="M27 138.128C27 134.814 29.6863 132.128 33 132.128H257.266C260.58 132.128 263.266 134.814 263.266 138.128C263.266 141.442 260.58 144.128 257.266 144.128H33C29.6863 144.128 27 141.442 27 138.128Z"
        fill="#00152A"
        fill-opacity="0.1" />
  <path d="M27 183.628C27 180.038 29.9101 177.128 33.5 177.128H256.766C260.356 177.128 263.266 180.038 263.266 183.628C263.266 187.218 260.356 190.128 256.766 190.128H33.5C29.9102 190.128 27 187.218 27 183.628Z"
        fill="#00152A"
        fill-opacity="0.1" />
  <path d="M27 229.128C27 225.814 29.6863 223.128 33 223.128H257.266C260.58 223.128 263.266 225.814 263.266 229.128C263.266 232.442 260.58 235.128 257.266 235.128H33C29.6863 235.128 27 232.442 27 229.128Z"
        fill="#00152A"
        fill-opacity="0.1" />
</svg>